<svg width="24" height="24" viewBox="0 0 24 24" fill="none" xmlns="http://www.w3.org/2000/svg">
<path fill-rule="evenodd" clip-rule="evenodd" d="M4.125 12C4.125 14.0886 4.95468 16.0916 6.43153 17.5685C7.90838 19.0453 9.91142 19.875 12 19.875C14.0886 19.875 16.0916 19.0453 17.5685 17.5685C19.0453 16.0916 19.875 14.0886 19.875 12C19.875 9.91142 19.0453 7.90838 17.5685 6.43153C16.0916 4.95468 14.0886 4.125 12 4.125C9.91142 4.125 7.90838 4.95468 6.43153 6.43153C4.95468 7.90838 4.125 9.91142 4.125 12ZM21 12C21 14.3869 20.0518 16.6761 18.364 18.364C16.6761 20.0518 14.3869 21 12 21C9.61305 21 7.32387 20.0518 5.63604 18.364C3.94821 16.6761 3 14.3869 3 12C3 9.61305 3.94821 7.32387 5.63604 5.63604C7.32387 3.94821 9.61305 3 12 3C14.3869 3 16.6761 3.94821 18.364 5.63604C20.0518 7.32387 21 9.61305 21 12ZM9.58575 15.1534C9.48028 15.259 9.33716 15.3184 9.1879 15.3185C9.03863 15.3186 8.89543 15.2594 8.78981 15.1539C8.68419 15.0485 8.62479 14.9054 8.62469 14.7561C8.62458 14.6068 8.68378 14.4636 8.78925 14.358L13.3984 9.75H10.2844C10.1352 9.75 9.99212 9.69074 9.88663 9.58525C9.78114 9.47976 9.72187 9.33668 9.72187 9.1875C9.72187 9.03832 9.78114 8.89524 9.88663 8.78975C9.99212 8.68426 10.1352 8.625 10.2844 8.625H14.7562C14.9054 8.625 15.0485 8.68426 15.154 8.78975C15.2595 8.89524 15.3187 9.03832 15.3187 9.1875V13.6594C15.3187 13.8086 15.2595 13.9516 15.154 14.0571C15.0485 14.1626 14.9054 14.2219 14.7562 14.2219C14.6071 14.2219 14.464 14.1626 14.3585 14.0571C14.253 13.9516 14.1937 13.8086 14.1937 13.6594V10.5454L9.58575 15.1534Z" fill="#8C8B90"/>
</svg>
