<svg width="30" height="30" viewBox="0 0 30 30" fill="none" xmlns="http://www.w3.org/2000/svg">
<path opacity="0.8" d="M27.5 15.006C27.5 21.8922 21.8895 27.5 15 27.5C8.11052 27.5 2.5 21.8922 2.5 15.006C2.5 8.10781 8.11052 2.5 15 2.5C21.8895 2.5 27.5 8.10781 27.5 15.006Z" fill="#E2B010"/>
<path d="M20 15.0061C20 15.322 19.9006 15.6391 19.7017 15.8931C19.6644 15.9429 19.4904 16.1482 19.3537 16.2819L19.2791 16.3548C18.2351 17.4617 15.6374 19.1264 14.32 19.6598C14.32 19.6719 13.5369 19.9891 13.1641 20H13.1143C12.5426 20 12.0082 19.6853 11.7347 19.175C11.5856 18.8943 11.4489 18.0802 11.4364 18.0693C11.3246 17.339 11.25 16.2211 11.25 14.9939C11.25 13.7072 11.3246 12.5395 11.4613 11.8226C11.4613 11.8104 11.598 11.1543 11.685 10.9356C11.8217 10.6209 12.0703 10.3524 12.381 10.1823C12.6296 10.062 12.8906 10 13.1641 10C13.4499 10.0134 13.9844 10.1944 14.1957 10.2795C15.5877 10.8141 18.2475 12.5638 19.2667 13.633C19.4407 13.8032 19.6271 14.0109 19.6768 14.0583C19.8881 14.3256 20 14.6537 20 15.0061Z" fill="white"/>
</svg>
