<svg width="40" height="40" viewBox="0 0 40 40" fill="none" xmlns="http://www.w3.org/2000/svg">
<path d="M36.6673 19.9998C36.6673 29.1915 29.1907 36.6665 20.0007 36.6665C10.8107 36.6665 3.33398 29.1915 3.33398 19.9998C3.33398 10.8098 10.8107 3.33316 20.0007 3.33316C29.1907 3.33316 36.6673 10.8098 36.6673 19.9998Z" fill="#283270"/>
<path d="M22.688 19.472H20.96V17.745C20.96 17.334 20.627 17 20.216 17C19.805 17 19.471 17.334 19.471 17.745V19.472H17.744C17.333 19.472 17 19.806 17 20.217C17 20.628 17.333 20.962 17.744 20.962H19.471V22.688C19.471 23.099 19.805 23.433 20.216 23.433C20.627 23.433 20.96 23.099 20.96 22.688V20.962H22.688C23.099 20.962 23.433 20.628 23.433 20.217C23.433 19.806 23.099 19.472 22.688 19.472Z" fill="white"/>
</svg>
