<svg width="12" height="12" viewBox="0 0 12 12" fill="none" xmlns="http://www.w3.org/2000/svg">
<path d="M5.25 0.937506C5.3486 0.937109 5.44631 0.956238 5.53748 0.993788C5.62865 1.03134 5.71149 1.08657 5.78121 1.15629C5.85094 1.22601 5.90617 1.30885 5.94372 1.40002C5.98127 1.4912 6.0004 1.5889 6 1.68751V3.60676C9.375 3.98026 12 6.83851 12 10.3125V11.0625C10.3163 8.49526 8.0625 8.12251 6 8.07076V9.93751C6.00033 10.086 5.95654 10.2312 5.87418 10.3547C5.79183 10.4783 5.67463 10.5746 5.53746 10.6314C5.40028 10.6882 5.24932 10.703 5.10373 10.6738C4.95815 10.6447 4.8245 10.573 4.71975 10.4678L0 5.81251L4.71975 1.15651C4.78934 1.08686 4.87201 1.03166 4.96301 0.994073C5.05401 0.956489 5.15154 0.937265 5.25 0.937506Z" fill="#00AD71"/>
</svg>
